<svg version="1.0" xmlns="http://www.w3.org/2000/svg"
 width="48.000000pt" height="48.000000pt" viewBox="0 0 48.000000 48.000000"
 preserveAspectRatio="xMidYMid meet">
<g transform="translate(0.000000,48.000000) scale(0.009375,-0.009375)"
fill="#e8edf2" stroke="none">
<path d="M2320 5105 c-447 -76 -844 -364 -1048 -761 -118 -230 -163 -417 -163
-675 0 -384 136 -721 402 -1003 l89 -94 -24 -36 c-52 -78 -57 -182 -11 -271
l23 -47 -26 -51 c-38 -73 -38 -160 1 -239 l28 -58 -19 -27 c-78 -110 -39 -281
83 -357 l45 -29 0 -309 c0 -249 3 -314 14 -336 8 -15 192 -204 408 -419 l394
-393 44 0 44 0 394 393 c216 215 400 404 408 419 11 22 14 87 14 336 l0 309
45 29 c122 76 161 247 83 357 l-19 27 28 58 c39 79 39 166 1 239 l-26 51 23
47 c46 89 41 193 -11 271 l-24 36 89 94 c266 282 402 619 402 1003 0 258 -45
445 -163 675 -206 401 -604 687 -1057 762 -105 17 -367 16 -471 -1z m453 -180
c399 -70 748 -331 927 -695 90 -181 130 -354 130 -559 0 -363 -137 -677 -406
-929 l-98 -92 -208 0 -208 0 1 278 0 277 86 70 c245 200 306 261 356 360 144
287 32 610 -243 700 -77 26 -188 24 -265 -5 -72 -27 -76 -27 -145 -1 -40 15
-79 20 -140 20 -61 0 -100 -5 -140 -20 -68 -26 -72 -26 -145 1 -77 29 -188 31
-265 5 -275 -90 -387 -413 -243 -700 50 -99 111 -160 356 -360 l86 -70 0 -277
1 -278 -208 0 -208 0 -98 92 c-269 252 -406 566 -406 929 0 259 71 492 217
713 62 93 198 234 296 307 146 109 357 200 540 234 102 18 323 18 430 0z
m-575 -760 c2 -1 -6 -18 -17 -36 -79 -137 -62 -340 40 -470 46 -58 92 -89 132
-89 54 0 160 123 188 218 7 23 15 42 19 42 4 0 12 -19 19 -42 28 -95 134 -218
188 -218 40 0 86 31 132 89 102 130 119 333 40 469 -10 18 -19 35 -19 36 0 11
79 13 120 2 134 -35 219 -182 190 -330 -26 -131 -69 -187 -285 -366 -93 -78
-180 -152 -192 -166 -23 -25 -23 -28 -23 -340 l0 -314 -170 0 -170 0 0 314 c0
312 0 315 -22 340 -13 14 -99 88 -193 166 -216 179 -259 235 -285 366 -29 147
55 294 188 330 38 10 107 10 120 -1z m1178 -1718 c35 -31 37 -77 4 -112 l-23
-25 -797 0 -797 0 -23 25 c-33 35 -31 81 4 112 l27 23 789 0 789 0 27 -23z
m-16 -330 c31 -15 54 -60 45 -87 -4 -12 -16 -30 -28 -40 -20 -20 -39 -20 -817
-20 -778 0 -797 0 -817 20 -12 10 -24 28 -28 40 -9 27 14 72 45 87 36 19 1564
19 1600 0z m18 -350 c11 -10 23 -29 26 -43 7 -28 -16 -79 -39 -88 -22 -8
-1588 -8 -1610 0 -23 9 -46 60 -39 88 7 28 30 52 59 59 11 3 372 4 801 3 742
-1 783 -2 802 -19z m-138 -527 c0 -115 -2 -210 -5 -210 -2 0 -32 18 -66 40
-91 59 -110 56 -244 -33 l-110 -74 -110 74 c-144 96 -146 96 -290 0 l-110 -74
-110 74 c-134 89 -153 92 -244 33 -34 -22 -64 -40 -66 -40 -3 0 -5 95 -5 210
l0 210 680 0 680 0 0 -210z m-1077 -402 c80 -53 118 -72 142 -72 24 0 62 19
144 73 l111 74 111 -74 c82 -54 120 -73 144 -73 24 0 62 19 142 72 60 40 112
72 117 72 6 0 85 -50 106 -67 2 -2 -68 -76 -155 -163 l-160 -160 -305 0 -305
0 -160 160 c-126 127 -157 163 -145 170 8 5 31 20 50 34 19 14 39 25 45 26 5
0 58 -32 118 -72z m459 -560 l-62 -63 -62 63 -63 62 125 0 125 0 -63 -62z"/>
<path d="M847 5042 c-31 -32 -57 -62 -57 -67 0 -13 332 -345 345 -345 6 0 37
27 70 60 l60 60 -175 175 c-96 96 -177 175 -180 175 -3 0 -31 -26 -63 -58z"/>
<path d="M4030 4925 l-175 -175 60 -60 c33 -33 64 -60 70 -60 13 0 345 332
345 345 0 10 -111 125 -120 125 -3 0 -84 -79 -180 -175z"/>
<path d="M340 3670 l0 -90 260 0 260 0 0 90 0 90 -260 0 -260 0 0 -90z"/>
<path d="M4260 3670 l0 -90 260 0 260 0 0 90 0 90 -260 0 -260 0 0 -90z"/>
<path d="M957 2542 c-92 -92 -167 -172 -167 -177 0 -6 27 -37 60 -70 l60 -60
175 175 175 175 -62 62 c-34 35 -65 63 -68 63 -3 0 -81 -75 -173 -168z"/>
<path d="M3922 2647 l-62 -62 175 -175 175 -175 60 60 c33 33 60 64 60 70 0
10 -330 345 -340 345 -3 0 -34 -28 -68 -63z"/>
<path d="M680 940 l0 -90 90 0 90 0 0 90 0 90 -90 0 -90 0 0 -90z"/>
<path d="M1020 940 l0 -90 90 0 90 0 0 90 0 90 -90 0 -90 0 0 -90z"/>
<path d="M1360 940 l0 -90 90 0 90 0 0 90 0 90 -90 0 -90 0 0 -90z"/>
<path d="M3580 940 l0 -90 90 0 90 0 0 90 0 90 -90 0 -90 0 0 -90z"/>
<path d="M3920 940 l0 -90 90 0 90 0 0 90 0 90 -90 0 -90 0 0 -90z"/>
<path d="M4260 940 l0 -90 90 0 90 0 0 90 0 90 -90 0 -90 0 0 -90z"/>
</g>
</svg>
