<svg version="1.0" xmlns="http://www.w3.org/2000/svg"
 width="48.000000pt" height="48.000000pt" viewBox="0 0 48.000000 48.000000"
 preserveAspectRatio="xMidYMid meet">
<g transform="translate(0.000000,48.000000) scale(0.075000,-0.075000)"
fill="#e8edf2" stroke="none">
<path d="M90 561 c-5 -11 -10 -69 -10 -130 0 -62 -4 -112 -10 -116 -5 -3 -10
-30 -10 -60 0 -46 4 -56 26 -74 24 -19 40 -21 145 -21 l119 0 0 -24 c0 -44 24
-56 114 -56 121 0 117 -5 114 180 l-3 155 -99 3 c-64 2 -103 -1 -112 -9 -9 -7
-14 -31 -14 -65 l0 -54 -32 0 c-18 0 -42 7 -52 15 -12 9 -42 15 -78 15 l-59 0
3 108 3 107 185 0 185 0 3 -38 c3 -33 6 -38 25 -35 17 2 23 11 25 40 2 20 -2
46 -8 58 -10 19 -19 20 -230 20 -207 0 -220 -1 -230 -19z m445 -306 l0 -120
-67 -3 -68 -3 0 126 0 126 68 -3 67 -3 0 -120z"/>
</g>
</svg>
