<svg version="1.0" xmlns="http://www.w3.org/2000/svg"
 width="48.000000pt" height="48.000000pt" viewBox="0 0 48.000000 48.000000"
 preserveAspectRatio="xMidYMid meet">
<g transform="translate(0.000000,48.000000) scale(0.009375,-0.009375)"
fill="#e8edf2" stroke="none">
<path d="M1193 5100 c-57 -34 -82 -95 -68 -167 5 -30 28 -59 108 -141 114
-116 141 -134 202 -134 104 0 170 84 150 189 -5 30 -28 59 -108 141 -56 57
-114 110 -129 118 -39 20 -117 18 -155 -6z"/>
<path d="M2361 5101 c-112 -28 -249 -102 -331 -178 -84 -78 -128 -136 -180
-241 -62 -123 -82 -214 -83 -362 0 -205 49 -340 184 -507 81 -100 120 -176
127 -245 l5 -48 477 0 477 0 5 48 c7 69 46 145 127 245 39 49 87 120 107 159
118 235 105 527 -36 768 -62 107 -192 233 -295 287 -140 72 -190 85 -360 89
-123 3 -164 0 -224 -15z"/>
<path d="M3765 5101 c-16 -10 -73 -63 -127 -117 -75 -78 -98 -107 -103 -137
-20 -105 46 -189 150 -189 61 0 88 18 202 134 80 82 103 111 108 141 14 74
-15 141 -75 172 -41 21 -118 19 -155 -4z"/>
<path d="M900 4382 c-73 -36 -101 -155 -53 -220 48 -64 59 -67 243 -67 155 0
171 2 196 21 50 37 67 68 68 126 0 66 -28 118 -78 142 -51 24 -327 23 -376 -2z"/>
<path d="M3837 4378 c-81 -48 -99 -161 -35 -233 42 -48 86 -57 254 -53 125 3
146 6 170 24 72 53 91 128 52 204 -36 71 -64 80 -248 80 -141 0 -158 -2 -193
-22z"/>
<path d="M1371 3825 c-44 -20 -207 -179 -232 -227 -70 -137 73 -279 209 -209
45 24 204 184 226 228 37 74 5 171 -67 204 -50 22 -90 23 -136 4z"/>
<path d="M3613 3821 c-72 -33 -104 -130 -67 -204 22 -44 181 -204 226 -228
144 -75 288 84 199 222 -15 24 -64 79 -109 122 -112 108 -163 126 -249 88z"/>
<path d="M2084 3183 c13 -94 29 -149 64 -216 139 -268 533 -320 752 -98 79 80
116 165 136 314 l6 47 -482 0 -482 0 6 -47z"/>
<path d="M850 2384 c-213 -41 -374 -189 -435 -398 -22 -75 -22 -230 0 -310 51
-190 211 -345 401 -387 l57 -13 -76 -13 c-290 -49 -554 -235 -686 -484 -88
-165 -111 -270 -111 -507 0 -195 5 -212 66 -253 28 -18 59 -19 650 -19 l621 0
-13 58 c-16 68 -18 283 -4 402 26 208 110 427 225 586 15 20 13 23 -43 62
-115 80 -243 134 -375 156 l-72 12 70 22 c175 53 316 200 370 385 20 68 22
211 4 282 -43 177 -169 319 -342 389 -61 25 -88 30 -177 32 -58 1 -116 0 -130
-2z"/>
<path d="M2422 2376 c-293 -72 -472 -364 -407 -668 43 -206 202 -370 405 -419
l55 -13 -65 -8 c-95 -13 -248 -68 -342 -124 -162 -97 -316 -272 -388 -442 -58
-137 -74 -227 -74 -427 -1 -173 0 -181 22 -213 47 -66 -5 -62 935 -62 l854 0
33 23 c66 44 72 70 67 267 -6 193 -23 285 -77 412 -72 170 -226 345 -388 442
-96 57 -252 113 -342 123 l-64 6 60 17 c198 55 349 208 399 405 18 70 19 182
4 257 -40 195 -210 372 -405 422 -73 19 -207 20 -282 2z"/>
<path d="M4026 2374 c-249 -60 -416 -277 -416 -539 1 -263 156 -474 399 -541
l64 -18 -74 -12 c-136 -23 -268 -78 -382 -157 -54 -38 -57 -41 -43 -61 121
-171 200 -377 226 -586 14 -119 12 -334 -4 -403 l-13 -57 621 0 c591 0 622 1
650 19 61 40 66 59 66 249 0 192 -13 278 -61 402 -85 222 -246 397 -464 505
-107 53 -239 94 -307 96 -30 1 -29 2 17 14 283 78 464 358 416 641 -38 219
-218 409 -429 453 -71 15 -194 13 -266 -5z"/>
</g>
</svg>
